# xmcd
#
# Track frame offsets:
#	150
#	10303
#	20265
#	28133
#	32543
#	41544
#	54870
#	64002
#	75975
#	85295
#	94244
#	104292
#	115527
#	127095
#	138151
#	144730
#	154600
#	162572
#	172853
#	178374
#	189600
#	199551
#	209332
#	213093
#	221693
#	228445
#	237621
#	246611
#	254354
#	264213
#	273725
#
# Disc length: 3685 seconds
#
# Revision: 0
# Processed by: cddbd v1.5.2PL0 Copyright (c) Steve Scherf et al.
# Submitted via: EZCDAudioConverter 2.1.7.1
#
DISCID=b70e631f
DTITLE=V/A - Pulp and Pop Culture Box 1/4
DYEAR=1900
DGENRE=
TTITLE0=Butch Paulson - Man From Mars
TTITLE1=The Ran-Dells - The Martian Hop
TTITLE2=Invasion - The Invasion Is Coming
TTITLE3=Plan 9 From Outer Space
TTITLE4=Joe Bennett and The Sparkletones - Rocket
TTITLE5=Johnny Bond - X-15
TTITLE6=Starfires - Space Needle
TTITLE7=The Rebelaires with Sammy Smith - Satellite Rock
TTITLE8=Wesley Reynolds - Trip To The Moon
TTITLE9=Invaders From Mars
TTITLE10=Jack Fautheree - First Man On Mars
TTITLE11=Jackie Lowell with Duane Diamond and The Astronauts - Rocket Trip
TTITLE12=Bill Thomas - The Sputnik Story
TTITLE13=Sonny Sheather - Orbit With Me
TTITLE14=Nelson Young - Rock Old Sputnik
TTITLE15=Joe Norris - Rock Out Of This World
TTITLE16=Blackie Jenkins - Spaceship Life
TTITLE17=Royce Simpson - Space Dance
TTITLE18=It Came From Outer Space
TTITLE19=Sonny Day and The Tony Ray Trio - Creature From Outer Space
TTITLE20=Lonnie Miley - Satellite Fever - Asiatic Flu
TTITLE21=Joe Montgomery - Planetary Run
TTITLE22=Robot Monster
TTITLE23=Dick Robinson and His Makebelievers - The Boppin' Martian - Gibo Miban 
TTITLE23=Gibo - Go Man Go
TTITLE24=Blood Beast From Outer Space
TTITLE25=Boss Tones - Mope Itty Mope
TTITLE26=The Rollettes Orchestra/vocal Ray and Bob - Venus Rock
TTITLE27=Deacon and The Rock Rollers - Rockin' On The Moon
TTITLE28=Astro Zombies
TTITLE29=The Thunderbirds - Flying Saucer
TTITLE30=Unknown Preacher Flying Saucer Sermon
EXTD=
EXTT0=
EXTT1=
EXTT2=
EXTT3=
EXTT4=
EXTT5=
EXTT6=
EXTT7=
EXTT8=
EXTT9=
EXTT10=
EXTT11=
EXTT12=
EXTT13=
EXTT14=
EXTT15=
EXTT16=
EXTT17=
EXTT18=
EXTT19=
EXTT20=
EXTT21=
EXTT22=
EXTT23=
EXTT24=
EXTT25=
EXTT26=
EXTT27=
EXTT28=
EXTT29=
EXTT30=
PLAYORDER=
